<svg width="223" height="146" viewBox="0 0 223 146" fill="none" xmlns="http://www.w3.org/2000/svg">
<path fill-rule="evenodd" clip-rule="evenodd" d="M111.204 146C181.567 146 228.474 105.095 222.486 66.1855C204.289 -22.062 17.6762 -22.0617 0.423011 66.1855C-4.77982 103.148 38.3484 146 111.204 146ZM93.5269 8.36726C76.5603 24.829 67.7796 38.7724 65.795 42.7401L93.5269 47.7756C93.5269 75.7579 85.0436 88.1817 32.6467 97.6597C-9.5379 53.9774 46.2171 12.5944 93.5269 8.36726ZM71.9079 120.052C83.0475 118.611 111.204 103.646 121.971 84.6898C128.458 96.1631 128.957 110.131 130.667 124.051C111.271 127.001 91.5309 125.096 71.9079 120.052ZM204.808 66.1855C204.808 91.2814 183.844 104.92 169.877 112.126C163.389 81.1979 149.116 64.0804 134.66 48.7262L146.636 37.2528C139.151 33.5947 124.039 21.9871 122.841 7.22146C154.405 10.5505 204.808 26.8243 204.808 66.1855Z" fill="black"/>
</svg>
